<mxfile host="app.diagrams.net" agent="Mozilla/5.0 (Windows NT 10.0; Win64; x64) AppleWebKit/537.36 (KHTML, like Gecko) Chrome/141.0.0.0 Safari/537.36" version="28.2.7">
  <diagram name="Trang-1" id="1OlDSyMDisHVsl1j7b2r">
    <mxGraphModel dx="851" dy="914" grid="1" gridSize="10" guides="1" tooltips="1" connect="1" arrows="1" fold="1" page="1" pageScale="1" pageWidth="827" pageHeight="1169" math="0" shadow="0">
      <root>
        <mxCell id="0" />
        <mxCell id="1" parent="0" />
        <mxCell id="sUmxp9hnnzhnkkDKKw-E-65" value="" style="rounded=0;whiteSpace=wrap;html=1;" vertex="1" parent="1">
          <mxGeometry x="1713" y="600" width="717" height="360" as="geometry" />
        </mxCell>
        <mxCell id="sUmxp9hnnzhnkkDKKw-E-15" value="" style="rounded=0;whiteSpace=wrap;html=1;" vertex="1" parent="1">
          <mxGeometry x="1750" y="720" width="200" height="220" as="geometry" />
        </mxCell>
        <mxCell id="sUmxp9hnnzhnkkDKKw-E-16" value="ESXI 1 - HN1" style="rounded=0;whiteSpace=wrap;html=1;" vertex="1" parent="1">
          <mxGeometry x="1750" y="660" width="200" height="60" as="geometry" />
        </mxCell>
        <mxCell id="sUmxp9hnnzhnkkDKKw-E-18" value="[VM - vCenter]&lt;br&gt;Subnet - 10.10.10.10/24" style="rounded=0;whiteSpace=wrap;html=1;" vertex="1" parent="1">
          <mxGeometry x="1760.5" y="730" width="179" height="60" as="geometry" />
        </mxCell>
        <mxCell id="sUmxp9hnnzhnkkDKKw-E-25" value="[VM - ubuntu]&lt;br&gt;192.168.10.1" style="rounded=0;whiteSpace=wrap;html=1;" vertex="1" parent="1">
          <mxGeometry x="1760.5" y="800" width="179" height="60" as="geometry" />
        </mxCell>
        <mxCell id="sUmxp9hnnzhnkkDKKw-E-26" value="[VM - x]&lt;br&gt;x.x.x.x" style="rounded=0;whiteSpace=wrap;html=1;" vertex="1" parent="1">
          <mxGeometry x="1760.5" y="870" width="179" height="60" as="geometry" />
        </mxCell>
        <mxCell id="sUmxp9hnnzhnkkDKKw-E-27" value="" style="rounded=0;whiteSpace=wrap;html=1;" vertex="1" parent="1">
          <mxGeometry x="1969" y="720" width="200" height="220" as="geometry" />
        </mxCell>
        <mxCell id="sUmxp9hnnzhnkkDKKw-E-28" value="ESXI 2 - HN2" style="rounded=0;whiteSpace=wrap;html=1;" vertex="1" parent="1">
          <mxGeometry x="1969" y="660" width="200" height="60" as="geometry" />
        </mxCell>
        <mxCell id="sUmxp9hnnzhnkkDKKw-E-30" value="[VM - ubuntu]&lt;br&gt;192.168.10.1" style="rounded=0;whiteSpace=wrap;html=1;" vertex="1" parent="1">
          <mxGeometry x="1979.5" y="730" width="179" height="60" as="geometry" />
        </mxCell>
        <mxCell id="sUmxp9hnnzhnkkDKKw-E-31" value="[VM - x]&lt;br&gt;x.x.x.x" style="rounded=0;whiteSpace=wrap;html=1;" vertex="1" parent="1">
          <mxGeometry x="1979.5" y="800" width="179" height="60" as="geometry" />
        </mxCell>
        <mxCell id="sUmxp9hnnzhnkkDKKw-E-33" value="" style="rounded=0;whiteSpace=wrap;html=1;" vertex="1" parent="1">
          <mxGeometry x="2189" y="720" width="200" height="220" as="geometry" />
        </mxCell>
        <mxCell id="sUmxp9hnnzhnkkDKKw-E-34" value="ESXI 3 - HN3" style="rounded=0;whiteSpace=wrap;html=1;" vertex="1" parent="1">
          <mxGeometry x="2189" y="660" width="200" height="60" as="geometry" />
        </mxCell>
        <mxCell id="sUmxp9hnnzhnkkDKKw-E-35" value="[VM - ubuntu]&lt;br&gt;192.168.10.1" style="rounded=0;whiteSpace=wrap;html=1;" vertex="1" parent="1">
          <mxGeometry x="2199.5" y="730" width="179" height="60" as="geometry" />
        </mxCell>
        <mxCell id="sUmxp9hnnzhnkkDKKw-E-36" value="[VM - x]&lt;br&gt;x.x.x.x" style="rounded=0;whiteSpace=wrap;html=1;" vertex="1" parent="1">
          <mxGeometry x="2199.5" y="800" width="179" height="60" as="geometry" />
        </mxCell>
        <mxCell id="sUmxp9hnnzhnkkDKKw-E-50" value="" style="group" vertex="1" connectable="0" parent="1">
          <mxGeometry x="1360" y="809" width="310" height="360" as="geometry" />
        </mxCell>
        <mxCell id="sUmxp9hnnzhnkkDKKw-E-19" value="" style="rounded=0;whiteSpace=wrap;html=1;" vertex="1" parent="sUmxp9hnnzhnkkDKKw-E-50">
          <mxGeometry width="310" height="360" as="geometry" />
        </mxCell>
        <mxCell id="sUmxp9hnnzhnkkDKKw-E-9" value="[vCenter]&lt;br&gt;Subnet - 10.10.10.0/24" style="rounded=0;whiteSpace=wrap;html=1;" vertex="1" parent="sUmxp9hnnzhnkkDKKw-E-50">
          <mxGeometry x="52" y="50" width="199" height="60" as="geometry" />
        </mxCell>
        <mxCell id="sUmxp9hnnzhnkkDKKw-E-11" value="[vMotion]&lt;br&gt;Subnet - 10.20.10.0/24" style="rounded=0;whiteSpace=wrap;html=1;" vertex="1" parent="sUmxp9hnnzhnkkDKKw-E-50">
          <mxGeometry x="52" y="120" width="199" height="60" as="geometry" />
        </mxCell>
        <mxCell id="sUmxp9hnnzhnkkDKKw-E-12" value="[vSwitch]&lt;br&gt;Subnet - 10.30.10.0/24" style="rounded=0;whiteSpace=wrap;html=1;" vertex="1" parent="sUmxp9hnnzhnkkDKKw-E-50">
          <mxGeometry x="52" y="190" width="199" height="60" as="geometry" />
        </mxCell>
        <mxCell id="sUmxp9hnnzhnkkDKKw-E-13" value="[vSan / db ...]&lt;br&gt;Subnet - 10.x.x.x/24" style="rounded=0;whiteSpace=wrap;html=1;" vertex="1" parent="sUmxp9hnnzhnkkDKKw-E-50">
          <mxGeometry x="52" y="260" width="199" height="60" as="geometry" />
        </mxCell>
        <mxCell id="sUmxp9hnnzhnkkDKKw-E-20" value="Subnet rules" style="text;html=1;whiteSpace=wrap;strokeColor=none;fillColor=none;align=center;verticalAlign=middle;rounded=0;" vertex="1" parent="sUmxp9hnnzhnkkDKKw-E-50">
          <mxGeometry x="105" y="5" width="100" height="30" as="geometry" />
        </mxCell>
        <mxCell id="sUmxp9hnnzhnkkDKKw-E-66" value="Tổng quan" style="text;html=1;whiteSpace=wrap;strokeColor=none;fillColor=none;align=center;verticalAlign=middle;rounded=0;fontSize=19;" vertex="1" parent="1">
          <mxGeometry x="2022.25" y="620" width="98.5" height="30" as="geometry" />
        </mxCell>
        <mxCell id="sUmxp9hnnzhnkkDKKw-E-94" value="vCenter - Network" style="rounded=0;whiteSpace=wrap;html=1;" vertex="1" parent="1">
          <mxGeometry x="3180" y="1320" width="877" height="60" as="geometry" />
        </mxCell>
        <mxCell id="sUmxp9hnnzhnkkDKKw-E-67" value="" style="rounded=0;whiteSpace=wrap;html=1;" vertex="1" parent="1">
          <mxGeometry x="1713" y="1180" width="1110" height="710" as="geometry" />
        </mxCell>
        <mxCell id="sUmxp9hnnzhnkkDKKw-E-37" value="" style="rounded=0;whiteSpace=wrap;html=1;" vertex="1" parent="1">
          <mxGeometry x="1740" y="1270" width="350" height="220" as="geometry" />
        </mxCell>
        <mxCell id="sUmxp9hnnzhnkkDKKw-E-101" style="edgeStyle=orthogonalEdgeStyle;rounded=0;orthogonalLoop=1;jettySize=auto;html=1;exitX=1;exitY=0.5;exitDx=0;exitDy=0;entryX=0;entryY=0.5;entryDx=0;entryDy=0;endArrow=none;endFill=0;" edge="1" parent="1" source="sUmxp9hnnzhnkkDKKw-E-38" target="sUmxp9hnnzhnkkDKKw-E-98">
          <mxGeometry relative="1" as="geometry" />
        </mxCell>
        <mxCell id="sUmxp9hnnzhnkkDKKw-E-102" style="edgeStyle=orthogonalEdgeStyle;rounded=0;orthogonalLoop=1;jettySize=auto;html=1;exitX=0.75;exitY=1;exitDx=0;exitDy=0;entryX=1;entryY=0.5;entryDx=0;entryDy=0;" edge="1" parent="1" source="sUmxp9hnnzhnkkDKKw-E-38" target="sUmxp9hnnzhnkkDKKw-E-39">
          <mxGeometry relative="1" as="geometry" />
        </mxCell>
        <mxCell id="sUmxp9hnnzhnkkDKKw-E-38" value="ESXI 1 - HN1" style="rounded=0;whiteSpace=wrap;html=1;" vertex="1" parent="1">
          <mxGeometry x="1740" y="1210" width="350" height="60" as="geometry" />
        </mxCell>
        <mxCell id="sUmxp9hnnzhnkkDKKw-E-39" value="[VM - vCenter]&lt;br&gt;Subnet - 10.10.10.10/24" style="rounded=0;whiteSpace=wrap;html=1;" vertex="1" parent="1">
          <mxGeometry x="1760.5" y="1300" width="179" height="60" as="geometry" />
        </mxCell>
        <mxCell id="sUmxp9hnnzhnkkDKKw-E-42" value="" style="rounded=0;whiteSpace=wrap;html=1;" vertex="1" parent="1">
          <mxGeometry x="2550" y="1270" width="200" height="220" as="geometry" />
        </mxCell>
        <mxCell id="sUmxp9hnnzhnkkDKKw-E-99" style="edgeStyle=orthogonalEdgeStyle;rounded=0;orthogonalLoop=1;jettySize=auto;html=1;exitX=0;exitY=0.5;exitDx=0;exitDy=0;entryX=1;entryY=0.5;entryDx=0;entryDy=0;shape=wire;dashed=1;endArrow=none;endFill=0;" edge="1" parent="1" source="sUmxp9hnnzhnkkDKKw-E-43" target="sUmxp9hnnzhnkkDKKw-E-98">
          <mxGeometry relative="1" as="geometry" />
        </mxCell>
        <mxCell id="sUmxp9hnnzhnkkDKKw-E-43" value="ESXI 2 - HN2" style="rounded=0;whiteSpace=wrap;html=1;" vertex="1" parent="1">
          <mxGeometry x="2550" y="1210" width="200" height="60" as="geometry" />
        </mxCell>
        <mxCell id="sUmxp9hnnzhnkkDKKw-E-46" value="" style="rounded=0;whiteSpace=wrap;html=1;" vertex="1" parent="1">
          <mxGeometry x="2550" y="1630" width="200" height="220" as="geometry" />
        </mxCell>
        <mxCell id="sUmxp9hnnzhnkkDKKw-E-100" style="edgeStyle=orthogonalEdgeStyle;rounded=0;orthogonalLoop=1;jettySize=auto;html=1;exitX=0;exitY=0.5;exitDx=0;exitDy=0;entryX=1;entryY=0.5;entryDx=0;entryDy=0;shape=wire;dashed=1;endArrow=none;endFill=0;" edge="1" parent="1" source="sUmxp9hnnzhnkkDKKw-E-47" target="sUmxp9hnnzhnkkDKKw-E-98">
          <mxGeometry relative="1" as="geometry" />
        </mxCell>
        <mxCell id="sUmxp9hnnzhnkkDKKw-E-47" value="ESXI 3 - HN3" style="rounded=0;whiteSpace=wrap;html=1;" vertex="1" parent="1">
          <mxGeometry x="2550" y="1570" width="200" height="60" as="geometry" />
        </mxCell>
        <mxCell id="sUmxp9hnnzhnkkDKKw-E-76" value="vcenter subnet&lt;br&gt;10.10.10.0/24" style="text;html=1;whiteSpace=wrap;strokeColor=none;fillColor=none;align=center;verticalAlign=middle;rounded=0;" vertex="1" parent="1">
          <mxGeometry x="2267" y="1320" width="111.5" height="30" as="geometry" />
        </mxCell>
        <mxCell id="sUmxp9hnnzhnkkDKKw-E-98" value="" style="image;html=1;image=img/lib/clip_art/networking/Switch_128x128.png" vertex="1" parent="1">
          <mxGeometry x="2280" y="1240" width="80" height="80" as="geometry" />
        </mxCell>
        <mxCell id="sUmxp9hnnzhnkkDKKw-E-103" value="vSwitch : Vcenter&lt;div&gt;Nic 0&lt;/div&gt;&lt;div&gt;&lt;br&gt;&lt;/div&gt;&lt;div&gt;Khi triển khai vcenter chọn mạng Vcenter&lt;/div&gt;" style="text;html=1;whiteSpace=wrap;strokeColor=#006EAF;fillColor=#1ba1e2;align=center;verticalAlign=middle;rounded=0;fontColor=#ffffff;" vertex="1" parent="1">
          <mxGeometry x="1760.5" y="1370" width="300" height="100" as="geometry" />
        </mxCell>
      </root>
    </mxGraphModel>
  </diagram>
</mxfile>
